# xmcd
# 
# Track frame offsets:
#     150
#     19267
#     34926
#     47930
#     66682
#     82029
#     98591
#     116249
#     134572
#     149662
#     166224
#     181780
#     195464
#     213702
# 
# Disc length: 2979
# 
# Revision: 0
# Processed by: cddbd v1.5.2PL0 Copyright (c) Steve Scherf et al.
# Submitted via: fre:ac v1.0.31
# 
DISCID=da0ba10e
DTITLE=Ben Crane - Off My Rocker
DYEAR=0
DGENRE=Country
TTITLE0=The Sap In The Family Tree
TTITLE1=Lucky
TTITLE2=Salt Lick
TTITLE3=One Cheek Sneak
TTITLE4=Itchin' For A Britchin'
TTITLE5=Necessities
TTITLE6=Riding Drag
TTITLE7=Midwife Crisis
TTITLE8=Chick Magnet
TTITLE9=Once A Year
TTITLE10=Cafe Ole
TTITLE11=One Less Good Rope
TTITLE12=Zelda, Queen Of The Herd
TTITLE13=Sap Reprise (90 years later...)
EXTD=
EXTT0=
EXTT1=
EXTT2=
EXTT3=
EXTT4=
EXTT5=
EXTT6=
EXTT7=
EXTT8=
EXTT9=
EXTT10=
EXTT11=
EXTT12=
EXTT13=
PLAYORDER=
